<svg width="18" height="18" viewBox="0 0 18 18" fill="none" xmlns="http://www.w3.org/2000/svg">
<path d="M2.80885 11.9216C2.53261 11.6129 2.05846 11.5867 1.74981 11.8629C1.44117 12.1391 1.4149 12.6133 1.69115 12.9219L2.25 12.4217L2.80885 11.9216ZM13.6719 0.941149C13.3633 0.664904 12.8891 0.69117 12.6129 0.999815C12.3367 1.30846 12.3629 1.78261 12.6716 2.05885L13.1717 1.5L13.6719 0.941149ZM15 7.26525C15 7.67946 15.3358 8.01525 15.75 8.01525C16.1642 8.01525 16.5 7.67946 16.5 7.26525H15.75H15ZM15.7243 10.814C15.8977 10.4378 15.7333 9.99232 15.3572 9.8189C14.981 9.64548 14.5355 9.80983 14.3621 10.186L15.0432 10.5L15.7243 10.814ZM5.94833 6.1776L5.20113 6.24234V6.24234L5.94833 6.1776ZM7.875 8.24995L7.86651 8.9999H7.86651L7.875 8.24995ZM10.2712 5.17106L10.7193 5.77247V5.77247L10.2712 5.17106ZM10.82 4.65788L10.1869 4.25568V4.25568L10.82 4.65788ZM8.71875 6.49996L9.39812 6.8177V6.8177L8.71875 6.49996ZM8.67204 7.09277L9.39706 6.90082V6.90082L8.67204 7.09277ZM8.72797 7.49627L9.47797 7.49441V7.4944L8.72797 7.49627ZM11.3591 9.9569V10.7069L11.3669 10.7069L11.3591 9.9569ZM9.21823 10.8879L8.55573 10.5364V10.5364L9.21823 10.8879ZM9 15C9 14.5858 8.66421 14.25 8.25 14.25C7.83579 14.25 7.5 14.5858 7.5 15H8.25H9ZM6.75 15.75C6.33579 15.75 6 16.0858 6 16.5C6 16.9142 6.33579 17.25 6.75 17.25V16.5V15.75ZM9.75 17.25C10.1642 17.25 10.5 16.9142 10.5 16.5C10.5 16.0858 10.1642 15.75 9.75 15.75V16.5V17.25ZM3.05315 10.5005C3.26056 10.8591 3.71935 10.9816 4.0779 10.7742C4.43645 10.5668 4.55897 10.108 4.35156 9.74946L3.70236 10.125L3.05315 10.5005ZM6.00054 11.3984C5.642 11.191 5.1832 11.3136 4.9758 11.6721C4.76839 12.0306 4.89091 12.4894 5.24946 12.6968L5.625 12.0476L6.00054 11.3984ZM8.01525 15V14.25C5.94667 14.25 4.08888 13.3517 2.80885 11.9216L2.25 12.4217L1.69115 12.9219C3.24369 14.6566 5.50227 15.75 8.01525 15.75V15ZM13.1717 1.5L12.6716 2.05885C14.1017 3.33888 15 5.19667 15 7.26525H15.75H16.5C16.5 4.75227 15.4066 2.49369 13.6719 0.941149L13.1717 1.5ZM15.0432 10.5L14.3621 10.186C13.2554 12.5864 10.8288 14.25 8.01525 14.25V15V15.75C11.4356 15.75 14.3816 13.7262 15.7243 10.814L15.0432 10.5ZM4.5 3.41447L3.98506 3.95975C4.15561 4.12081 4.44848 4.45472 4.70721 4.88321C4.96762 5.31449 5.1619 5.78956 5.20113 6.24234L5.94833 6.1776L6.69553 6.11286C6.62942 5.34986 6.31899 4.6506 5.99129 4.10788C5.6619 3.56236 5.28328 3.12259 5.01494 2.86919L4.5 3.41447ZM5.94833 6.1776L5.20113 6.24234C5.32078 7.62341 6.24996 8.9816 7.86651 8.9999L7.875 8.24995L7.88349 7.49999C7.29021 7.49328 6.77279 7.00463 6.69553 6.11286L5.94833 6.1776ZM10.2712 5.17106L10.7193 5.77247C10.9481 5.60197 11.2739 5.34192 11.453 5.06008L10.82 4.65788L10.1869 4.25568C10.192 4.24768 10.1711 4.27929 10.0926 4.351C10.0218 4.41573 9.92982 4.4901 9.82306 4.56965L10.2712 5.17106ZM10.82 4.65788L11.453 5.06008C11.6341 4.77506 11.793 4.38984 11.8906 4.02087C11.9795 3.68529 12.0641 3.19577 11.9298 2.77293L11.215 3L10.5002 3.22707C10.4931 3.20478 10.5045 3.22859 10.4978 3.3216C10.4917 3.40641 10.473 3.51456 10.4406 3.637C10.3737 3.88974 10.2692 4.12623 10.1869 4.25568L10.82 4.65788ZM8.71875 6.49996L9.39812 6.8177C9.4932 6.61441 9.63314 6.47508 9.84703 6.32854C9.9622 6.24963 10.0825 6.17916 10.2361 6.08738C10.3804 6.00113 10.552 5.89708 10.7193 5.77247L10.2712 5.17106L9.82306 4.56965C9.72298 4.64422 9.60982 4.71418 9.4665 4.79984C9.33247 4.87996 9.16243 4.97929 8.99921 5.09112C8.65631 5.32606 8.28736 5.65201 8.03938 6.18223L8.71875 6.49996ZM8.67204 7.09277L9.39706 6.90082C9.39019 6.87486 9.38935 6.85786 9.38987 6.8481C9.39029 6.84024 9.39172 6.8314 9.39812 6.8177L8.71875 6.49996L8.03938 6.18223C7.85137 6.58423 7.86516 6.97551 7.94702 7.28473L8.67204 7.09277ZM8.72797 7.49627L9.47797 7.4944C9.47744 7.2831 9.44433 7.07937 9.39706 6.90082L8.67204 7.09277L7.94702 7.28473C7.96758 7.36236 7.97782 7.43709 7.97797 7.49813L8.72797 7.49627ZM8.72797 7.49627L7.97797 7.49813C7.97794 7.48308 7.98221 7.46864 7.9867 7.45982C7.99027 7.45283 7.99046 7.45596 7.98017 7.46457C7.96973 7.47329 7.95357 7.48325 7.93325 7.49057C7.91301 7.49787 7.8954 7.50013 7.88349 7.49999L7.875 8.24995L7.86651 8.9999C8.58369 9.00802 9.48039 8.46862 9.47797 7.49441L8.72797 7.49627ZM13.5 8.25L12.7929 7.99987C12.6552 8.38921 12.6559 8.5732 12.4711 8.81289C12.3534 8.96563 12.0939 9.19919 11.3513 9.20694L11.3591 9.9569L11.3669 10.7069C12.4839 10.6952 13.2126 10.3081 13.6592 9.7286C14.0388 9.23606 14.1801 8.57631 14.2071 8.50013L13.5 8.25ZM11.3591 9.9569C11.3591 9.2069 11.3589 9.2069 11.3587 9.2069C11.3586 9.2069 11.3584 9.2069 11.3582 9.2069C11.3579 9.2069 11.3575 9.2069 11.3571 9.2069C11.3564 9.2069 11.3555 9.2069 11.3546 9.20691C11.3526 9.20692 11.3503 9.20693 11.3476 9.20696C11.3421 9.20701 11.3351 9.2071 11.3265 9.20725C11.3094 9.20757 11.2863 9.20817 11.2578 9.2093C11.2009 9.21155 11.122 9.21592 11.027 9.22445C10.8389 9.24133 10.5783 9.2753 10.2949 9.34496C9.77577 9.47257 8.96079 9.77304 8.55573 10.5364L9.21823 10.8879L9.88073 11.2395C9.96972 11.0718 10.2252 10.9067 10.653 10.8016C10.843 10.7549 11.0251 10.7306 11.1611 10.7184C11.2282 10.7124 11.2819 10.7095 11.317 10.7081C11.3345 10.7074 11.3472 10.7071 11.3545 10.707C11.3581 10.7069 11.3604 10.7069 11.3612 10.7069C11.3616 10.7069 11.3616 10.7069 11.3613 10.7069C11.3611 10.7069 11.3608 10.7069 11.3605 10.7069C11.3603 10.7069 11.3601 10.7069 11.3599 10.7069C11.3598 10.7069 11.3596 10.7069 11.3595 10.7069C11.3593 10.7069 11.3591 10.7069 11.3591 9.9569ZM9.21823 10.8879L8.55573 10.5364C8.00187 11.5801 8.32376 12.6644 8.55573 13.1016L9.21823 12.75L9.88073 12.3984C9.84578 12.3326 9.77566 12.1509 9.75548 11.9173C9.73597 11.6915 9.76606 11.4556 9.88073 11.2395L9.21823 10.8879ZM8.25 16.5H9V15H8.25H7.5V16.5H8.25ZM8.25 16.5V15.75H6.75V16.5V17.25H8.25V16.5ZM9.75 16.5V15.75H8.25V16.5V17.25H9.75V16.5ZM8.25 2.25V3C10.7353 3 12.75 5.01472 12.75 7.5H13.5H14.25C14.25 4.18629 11.5637 1.5 8.25 1.5V2.25ZM13.5 7.5H12.75C12.75 9.98528 10.7353 12 8.25 12V12.75V13.5C11.5637 13.5 14.25 10.8137 14.25 7.5H13.5ZM3 7.5H3.75C3.75 5.01472 5.76472 3 8.25 3V2.25V1.5C4.93629 1.5 2.25 4.18629 2.25 7.5H3ZM3.70236 10.125L4.35156 9.74946C3.96912 9.08833 3.75 8.32089 3.75 7.5H3H2.25C2.25 8.59162 2.5422 9.61726 3.05315 10.5005L3.70236 10.125ZM8.25 12.75V12C7.42911 12 6.66167 11.7809 6.00054 11.3984L5.625 12.0476L5.24946 12.6968C6.13274 13.2078 7.15838 13.5 8.25 13.5V12.75Z" fill="#A373B6"/>
</svg>
