<svg width="40" height="80" viewBox="0 0 40 80" fill="none" xmlns="http://www.w3.org/2000/svg">
<circle cx="5" cy="5" r="5" transform="rotate(90 5 5)" fill="#7C3796"/>
<circle cx="5" cy="19" r="5" transform="rotate(90 5 19)" fill="#A373B6"/>
<circle cx="5" cy="33" r="5" transform="rotate(90 5 33)" fill="#BD9BCB"/>
<circle cx="5" cy="47" r="5" transform="rotate(90 5 47)" fill="#D5B2E4"/>
<circle cx="5" cy="61" r="5" transform="rotate(90 5 61)" fill="#E2C9EC"/>
<circle cx="5" cy="75" r="5" transform="rotate(90 5 75)" fill="#EEE0F4"/>
<circle cx="20" cy="5" r="5" transform="rotate(90 20 5)" fill="#7C3796"/>
<circle cx="20" cy="19" r="5" transform="rotate(90 20 19)" fill="#A373B6"/>
<circle cx="20" cy="33" r="5" transform="rotate(90 20 33)" fill="#BD9BCB"/>
<circle cx="20" cy="47" r="5" transform="rotate(90 20 47)" fill="#D5B2E4"/>
<circle cx="20" cy="61" r="5" transform="rotate(90 20 61)" fill="#E2C9EC"/>
<circle cx="20" cy="75" r="5" transform="rotate(90 20 75)" fill="#EEE0F4"/>
<circle cx="35" cy="5" r="5" transform="rotate(90 35 5)" fill="#7C3796"/>
<circle cx="35" cy="19" r="5" transform="rotate(90 35 19)" fill="#A373B6"/>
<circle cx="35" cy="33" r="5" transform="rotate(90 35 33)" fill="#BD9BCB"/>
<circle cx="35" cy="47" r="5" transform="rotate(90 35 47)" fill="#D5B2E4"/>
<circle cx="35" cy="61" r="5" transform="rotate(90 35 61)" fill="#E2C9EC"/>
<circle cx="35" cy="75" r="5" transform="rotate(90 35 75)" fill="#EEE0F4"/>
</svg>
